<?xml version="1.0" standalone="no"?>
<!DOCTYPE svg PUBLIC "-//W3C//DTD SVG 20010904//EN"
 "http://www.w3.org/TR/2001/REC-SVG-20010904/DTD/svg10.dtd">
<svg version="1.0" xmlns="http://www.w3.org/2000/svg"
 width="512.000000pt" height="512.000000pt" viewBox="0 0 512.000000 512.000000"
 preserveAspectRatio="xMidYMid meet">
<metadata>
Created by potrace 1.14, written by Peter Selinger 2001-2017
</metadata>
<g transform="translate(0.000000,512.000000) scale(0.100000,-0.100000)"
fill="#000000" stroke="none">
<path d="M2369 5076 c-2 -2 -31 -6 -64 -9 -105 -10 -251 -35 -340 -58 -22 -6
-47 -12 -56 -14 -48 -9 -253 -79 -324 -110 -258 -113 -471 -245 -675 -419 -19
-17 -85 -81 -146 -142 -277 -279 -483 -616 -601 -984 -27 -84 -69 -246 -77
-300 -3 -19 -8 -48 -12 -65 -21 -108 -32 -280 -29 -465 2 -113 6 -218 9 -235
3 -16 10 -59 16 -95 15 -100 20 -132 32 -175 5 -22 11 -47 13 -55 6 -31 28
-107 50 -175 213 -649 691 -1193 1310 -1490 137 -66 376 -152 467 -169 13 -2
41 -9 63 -14 22 -6 56 -13 75 -16 19 -3 46 -8 60 -10 139 -25 194 -29 405 -30
175 -1 346 8 364 18 3 2 33 7 66 11 32 3 62 8 65 10 3 2 22 6 44 9 119 19 374
105 549 185 423 194 829 558 1077 965 78 129 171 316 205 416 1 3 4 12 8 20
21 52 62 187 84 275 8 33 41 197 47 235 15 94 21 201 21 365 0 214 -12 357
-39 475 -3 14 -8 36 -10 50 -13 80 -88 330 -121 405 -8 17 -28 64 -45 105 -48
116 -199 378 -262 455 -9 11 -45 56 -79 100 -90 114 -297 317 -414 406 -164
124 -268 189 -430 268 -141 69 -178 84 -280 119 -183 63 -321 95 -490 118 -22
3 -51 7 -65 10 -28 6 -465 15 -471 10z"/>
</g>
</svg>
