<svg height="24" viewBox="0 0 24 24" width="24" xmlns="http://www.w3.org/2000/svg">
    <path clip-rule="evenodd" fill-rule="evenodd" fill="#FFFFFFAA"
          d="m12 22c-4.24264 0-6.36396 0-7.68198-1.4645-1.31802-1.4644-1.31802-3.8215-1.31802-8.5355 0-4.71405 0-7.07107 1.31802-8.53553 1.31802-1.46447 3.43934-1.46447 7.68198-1.46447 4.2426 0 6.364 0 7.682 1.46447 1.318 1.46446 1.318 3.82148 1.318 8.53553 0 4.714 0 7.0711-1.318 8.5355-1.318 1.4645-3.4394 1.4645-7.682 1.4645zm-2.75-8c0-.4142-.33579-.75-.75-.75s-.75.3358-.75.75v.75h-.75c-.41421 0-.75.3358-.75.75s.33579.75.75.75h.75v.75c0 .4142.33579.75.75.75s.75-.3358.75-.75v-.75h.75c.4142 0 .75-.3358.75-.75s-.3358-.75-.75-.75h-.75zm7.0833-.1667c0 .4603-.3731.8334-.8333.8334s-.8333-.3731-.8333-.8334c0-.4602.3731-.8333.8333-.8333s.8333.3731.8333.8333zm0 3.3334c0 .4602-.3731.8333-.8333.8333s-.8333-.3731-.8333-.8333c0-.4603.3731-.8334.8333-.8334s.8333.3731.8333.8334zm-2.5-.8334c.4603 0 .8334-.3731.8334-.8333s-.3731-.8333-.8334-.8333c-.4602 0-.8333.3731-.8333.8333s.3731.8333.8333.8333zm4.1667-.8333c0 .4602-.3731.8333-.8333.8333-.4603 0-.8334-.3731-.8334-.8333s.3731-.8333.8334-.8333c.4602 0 .8333.3731.8333.8333zm-10.94889-8.38823c-.05111.19075-.05111.42324-.05111.88823s0 .69748.05111.88823c.1387.51764.54302.92196 1.06066 1.06066.19075.05111.42324.05111.88823.05111h6c.465 0 .6975 0 .8882-.05111.5177-.1387.922-.54302 1.0607-1.06066.0511-.19075.0511-.42324.0511-.88823s0-.69748-.0511-.88823c-.1387-.51764-.543-.92196-1.0607-1.06066-.1907-.05111-.4232-.05111-.8882-.05111h-6c-.46499 0-.69748 0-.88823.05111-.51764.1387-.92196.54302-1.06066 1.06066z"/>
</svg>